<?xml version="1.0" standalone="no"?>
<!DOCTYPE svg PUBLIC "-//W3C//DTD SVG 20010904//EN"
 "http://www.w3.org/TR/2001/REC-SVG-20010904/DTD/svg10.dtd">
<svg version="1.0" xmlns="http://www.w3.org/2000/svg"
 width="512.000000pt" height="512.000000pt" viewBox="0 0 512.000000 512.000000"
 preserveAspectRatio="xMidYMid meet">

<g transform="translate(0.000000,512.000000) scale(0.100000,-0.100000)"
fill="#000000" stroke="none">
<path d="M2362 4902 c-58 -10 -86 -12 -90 -5 -8 13 -279 -103 -457 -195 -67
-35 -157 -90 -200 -122 -59 -44 -81 -56 -83 -45 -8 34 -350 -300 -396 -385
-16 -30 -37 -60 -46 -67 -10 -7 -39 -63 -65 -125 -54 -127 -85 -175 -116 -180
-28 -4 -112 -194 -190 -431 -53 -162 -57 -182 -49 -225 4 -26 6 -182 3 -347
-6 -322 3 -488 39 -675 119 -629 502 -1223 1031 -1597 232 -164 551 -300 757
-323 113 -12 326 -23 320 -16 -3 3 -73 19 -155 35 -255 52 -276 61 -409 190
-48 47 -83 75 -76 63 6 -13 10 -26 7 -28 -7 -7 -99 35 -134 62 -18 13 -53 33
-79 44 -44 19 -46 21 -30 39 23 25 20 38 -10 45 -14 4 -57 38 -95 76 -53 53
-76 70 -98 70 -16 0 -36 9 -48 22 -38 43 -92 133 -99 166 -5 26 -9 30 -21 21
-7 -7 -15 -10 -17 -8 -1 2 -41 58 -89 124 -90 125 -113 170 -96 180 5 4 -9 27
-31 52 -37 43 -39 47 -24 64 15 16 14 21 -14 61 -33 48 -75 130 -87 167 l-8
25 32 -27 c30 -25 51 -34 51 -22 0 2 -16 38 -35 79 -40 83 -91 136 -132 136
-16 0 -37 12 -57 34 -37 39 -92 176 -75 187 7 4 4 20 -11 49 -17 34 -21 57
-19 109 2 52 -2 76 -20 115 -17 35 -27 82 -34 160 -8 96 -6 150 17 391 14 154
31 298 37 320 6 21 44 105 85 186 41 80 74 151 74 158 0 6 -7 11 -15 11 -23 0
-18 13 24 70 189 252 439 465 568 486 23 3 44 14 51 25 7 10 8 19 3 19 -6 0
-13 -4 -16 -10 -3 -5 -14 -10 -23 -10 -24 1 90 104 143 130 23 11 81 27 128
34 74 12 127 29 127 40 0 2 -17 0 -37 -5 -87 -20 -81 -2 9 31 35 13 97 42 138
66 41 23 100 50 130 58 77 21 160 30 160 18 0 -6 15 -6 43 1 68 16 339 13 442
-6 265 -49 425 -129 605 -301 226 -216 374 -478 410 -729 6 -40 16 -82 22 -94
11 -23 5 -406 -7 -468 -5 -24 -4 -27 5 -15 23 30 2 -104 -30 -192 -27 -72 -37
-88 -61 -98 -42 -18 -52 -35 -60 -103 -7 -62 -8 -63 -86 -135 -95 -89 -229
-192 -249 -192 -17 0 -18 12 -1 30 6 7 -15 -9 -48 -38 -64 -54 -135 -89 -194
-97 -20 -2 -70 -14 -111 -25 -61 -17 -93 -21 -170 -17 -121 7 -192 26 -306 82
-167 84 -298 215 -380 380 -48 97 -84 222 -84 291 0 34 -3 42 -15 38 -35 -14
-7 193 44 319 64 162 181 287 336 363 112 54 194 74 311 74 140 0 285 -44 382
-117 56 -42 34 -7 -29 46 -137 115 -265 163 -434 163 -91 0 -124 -4 -190 -26
-136 -43 -269 -139 -331 -239 -15 -23 -46 -63 -69 -89 -29 -33 -53 -76 -79
-145 -21 -54 -45 -109 -54 -123 -14 -21 -17 -53 -17 -205 0 -161 3 -188 23
-255 62 -198 169 -335 422 -540 30 -25 58 -50 63 -57 10 -15 148 -57 256 -77
107 -20 314 -21 418 -1 226 43 413 144 615 334 54 50 100 91 103 91 3 0 1 -9
-5 -21 -7 -11 -9 -23 -6 -27 12 -11 19 9 21 61 1 41 9 66 31 100 l29 46 21
-26 21 -27 8 32 c4 18 32 87 62 154 41 92 56 137 62 191 4 39 13 73 19 75 7 2
12 12 12 22 0 10 3 26 7 36 5 14 9 11 18 -17 l12 -34 7 51 c3 28 20 90 36 138
27 80 28 87 10 81 -23 -7 -35 13 -43 75 -4 29 -1 55 7 70 11 21 10 29 -5 50
-21 31 -52 125 -47 141 2 7 15 -4 27 -25 13 -20 25 -35 27 -33 7 7 -36 201
-52 236 -12 27 -17 32 -24 20 -16 -26 -41 13 -47 74 l-6 57 35 0 c19 0 39 5
45 11 17 17 63 -66 124 -226 44 -114 52 -116 13 -4 -16 48 -27 104 -30 159 -4
80 -3 84 12 65 16 -19 16 -19 9 10 -10 45 -81 192 -128 265 -128 201 -334 406
-522 520 l-40 25 23 -29 c12 -16 20 -31 18 -34 -9 -9 -118 76 -136 106 -24 39
-72 49 -156 33 -61 -13 -62 -12 -133 23 -70 36 -379 146 -408 146 -9 0 -12 -6
-8 -19 5 -17 2 -18 -40 -8 -32 7 -72 7 -142 -2 -54 -7 -111 -11 -128 -9 l-30
4 25 11 c24 10 23 11 -21 18 -25 4 -76 5 -112 3 -36 -1 -64 -1 -61 1 2 2 21
15 41 27 35 21 36 23 13 23 -14 -1 -63 -8 -108 -17z"/>
<path d="M2718 4883 c6 -2 18 -2 25 0 6 3 1 5 -13 5 -14 0 -19 -2 -12 -5z"/>
<path d="M760 3896 c0 -14 -4 -36 -10 -51 -9 -24 -8 -25 11 -15 37 20 52 90
19 90 -15 0 -20 -7 -20 -24z"/>
<path d="M645 3517 c-16 -40 -20 -77 -7 -77 10 0 35 100 27 108 -2 3 -12 -11
-20 -31z"/>
<path d="M4451 3464 c0 -11 3 -14 6 -6 3 7 2 16 -1 19 -3 4 -6 -2 -5 -13z"/>
<path d="M3491 3011 c-7 -12 -7 -28 2 -50 17 -45 27 -38 27 19 0 51 -12 64
-29 31z"/>
<path d="M4361 2734 c0 -11 3 -14 6 -6 3 7 2 16 -1 19 -3 4 -6 -2 -5 -13z"/>
<path d="M4351 2684 c0 -11 3 -14 6 -6 3 7 2 16 -1 19 -3 4 -6 -2 -5 -13z"/>
<path d="M3340 2635 c-12 -19 -20 -40 -18 -46 2 -5 13 10 26 35 26 55 22 60
-8 11z"/>
<path d="M3408 2626 c-9 -19 -30 -40 -46 -47 -27 -12 -28 -14 -14 -25 9 -7 20
-10 25 -7 10 6 59 104 54 109 -2 2 -11 -11 -19 -30z"/>
<path d="M3000 2420 c-83 -5 -92 -7 -69 -17 46 -20 109 -34 128 -28 24 7 69
56 50 53 -8 -1 -57 -4 -109 -8z"/>
<path d="M2170 2329 c12 -23 24 -38 27 -35 5 5 -35 76 -43 76 -2 0 5 -18 16
-41z"/>
<path d="M2060 2277 c0 -23 99 -168 134 -196 9 -8 -14 38 -51 102 -37 65 -71
117 -75 117 -5 0 -8 -10 -8 -23z"/>
<path d="M2197 2190 c26 -48 156 -178 234 -233 230 -162 537 -248 724 -203 50
12 49 12 -75 18 -214 11 -337 46 -427 123 -23 19 -43 30 -45 25 -5 -15 -141
72 -218 138 -67 58 -61 45 20 -42 39 -44 41 -47 15 -32 -16 9 -79 68 -138 129
-73 75 -103 101 -90 77z"/>
</g>
</svg>
